<?xml version="1.0" encoding="UTF-8"?>
<svg id="Camada_2" data-name="Camada 2" xmlns="http://www.w3.org/2000/svg" viewBox="0 0 291.91 58.46">
  <g id="Camada_1-2" data-name="Camada 1">
    <g>
      <g>
        <path d="M85.03,6.78h7.15l13.09,35.94h-7.15l-2.85-8.55h-13.62l-2.9,8.55h-6.76L85.03,6.78Zm-1.74,22.46h10.34l-2.75-8.31c-.35-1.06-.67-2.1-.94-3.12-.27-1.01-.51-1.94-.7-2.78-.23-.97-.43-1.88-.63-2.75h-.1c-.26,1-.52,2.01-.77,3.04-.23,.87-.48,1.81-.75,2.83-.27,1.01-.56,1.94-.85,2.78l-2.85,8.31Z" style="fill: #fff;"/>
        <path d="M120.34,6.78h6.71V42.72h-6.71V6.78Z" style="fill: #fff;"/>
        <path d="M159.66,37.79h-.19c-1.16,1.96-2.67,3.41-4.52,4.35-1.85,.93-3.91,1.4-6.16,1.4-2.54,0-4.85-.45-6.91-1.35-2.06-.9-3.83-2.16-5.31-3.77-1.55-1.67-2.72-3.65-3.53-5.94-.81-2.29-1.21-4.81-1.21-7.58,0-2.93,.47-5.61,1.4-8.04,.93-2.43,2.29-4.5,4.06-6.21,1.45-1.45,3.16-2.57,5.14-3.36,1.98-.79,4.26-1.18,6.83-1.18,2.19,0,4.15,.28,5.89,.85,1.74,.56,3.24,1.35,4.52,2.34,1.27,1,2.31,2.21,3.12,3.62,.8,1.42,1.37,2.96,1.69,4.64h-6.76c-.48-1.67-1.4-3.07-2.75-4.18-1.35-1.11-3.22-1.67-5.6-1.67-1.84,0-3.42,.34-4.76,1.01-1.34,.68-2.45,1.61-3.33,2.8-.89,1.19-1.55,2.58-1.98,4.18-.43,1.59-.65,3.33-.65,5.19s.26,3.69,.77,5.29c.51,1.59,1.24,2.96,2.17,4.11,.93,1.14,2.06,2.04,3.38,2.68,1.32,.64,2.78,.97,4.4,.97,1.51,0,2.84-.24,3.98-.72s2.11-1.12,2.9-1.91,1.38-1.71,1.79-2.75c.4-1.05,.6-2.15,.6-3.31v-.43h-8.7v-5.22h15.12v19.13h-4.49l-.92-4.93Z" style="fill: #fff;"/>
        <path d="M170.43,6.78h16.96c1.67,0,3.22,.23,4.64,.7,1.42,.47,2.63,1.14,3.65,2,1.01,.87,1.81,1.92,2.39,3.16,.58,1.24,.87,2.65,.87,4.23,0,2.16-.52,3.99-1.55,5.51-1.03,1.51-2.72,2.64-5.07,3.38v.14c1.9,.58,3.26,1.47,4.08,2.66,.82,1.19,1.33,2.9,1.52,5.12,.29,2.64,.51,4.69,.65,6.13,.15,1.45,.46,2.3,.94,2.56v.34h-6.76c-.45-.29-.73-1.13-.85-2.51-.11-1.38-.27-3.28-.46-5.7-.19-2.13-.81-3.67-1.86-4.64-1.05-.97-2.65-1.45-4.81-1.45h-7.68v14.3h-6.67V6.78Zm6.67,16.52h8.69c2.13,0,3.73-.49,4.81-1.47,1.08-.98,1.62-2.31,1.62-3.98,0-1.8-.49-3.19-1.47-4.15s-2.55-1.45-4.71-1.45h-8.94v11.06Z" style="fill: #fff;"/>
        <path d="M204,6.78h26.28v5.7h-19.61v8.89h17.34v5.36h-17.34v10.14h20.05v5.84h-26.71V6.78Z" style="fill: #fff;"/>
        <path d="M245.21,43.4c-3.8,0-6.68-.99-8.65-2.97-1.96-1.98-2.95-4.87-2.95-8.67v-1.84h6.28v1.64c0,2.38,.43,4.03,1.28,4.95,.85,.92,2.12,1.38,3.79,1.38,3.16,0,4.73-1.77,4.73-5.31V6.78h6.71v26.04c0,3.03-.81,5.41-2.42,7.15-.93,1.06-2.13,1.9-3.6,2.51-1.47,.61-3.2,.92-5.19,.92Z" style="fill: #fff;"/>
        <path d="M271.68,6.78h7.15l13.09,35.94h-7.15l-2.85-8.55h-13.62l-2.9,8.55h-6.76l13.04-35.94Zm-1.74,22.46h10.34l-2.75-8.31c-.35-1.06-.67-2.1-.94-3.12-.27-1.01-.51-1.94-.7-2.78-.23-.97-.43-1.88-.63-2.75h-.1c-.26,1-.52,2.01-.77,3.04-.23,.87-.48,1.81-.75,2.83-.27,1.01-.56,1.94-.85,2.78l-2.85,8.31Z" style="fill: #fff;"/>
      </g>
      <path d="M0,0V58.46H55.57V0H0ZM48.89,43.16H6.68V6.75H48.89V43.16Z" style="fill: #fff;"/>
    </g>
  </g>
</svg>